G75*
%MOIN*%
%OFA0B0*%
%FSLAX25Y25*%
%IPPOS*%
%LPD*%
%AMOC8*
5,1,8,0,0,1.08239X$1,22.5*
%
%ADD10C,0.08200*%
%ADD11R,0.03950X0.05524*%
%ADD12R,0.05524X0.03950*%
%ADD13R,0.08674X0.05524*%
%ADD14R,0.04737X0.05131*%
%ADD15R,0.08200X0.08200*%
%ADD16C,0.01600*%
%ADD17R,0.06500X0.18300*%
%ADD18R,0.04000X0.02000*%
%ADD19R,0.02000X0.04000*%
%ADD20R,0.08800X0.08800*%
%ADD21R,0.04343X0.03950*%
%ADD22C,0.07296*%
D10*
X0142120Y0094722D03*
X0128460Y0113902D03*
X0128460Y0123902D03*
X0176500Y0126432D03*
X0176500Y0116432D03*
X0196190Y0116172D03*
X0196190Y0126172D03*
X0207930Y0090912D03*
X0208930Y0080912D03*
X0207930Y0070912D03*
X0050720Y0115132D03*
X0050720Y0125132D03*
D11*
X0054894Y0099255D03*
X0061981Y0099255D03*
X0060737Y0071152D03*
X0067823Y0071152D03*
X0090787Y0071912D03*
X0097873Y0071912D03*
X0105887Y0071712D03*
X0112973Y0071712D03*
D12*
X0097980Y0055119D03*
X0097980Y0062205D03*
X0083050Y0074219D03*
X0083050Y0081305D03*
X0067900Y0079949D03*
X0067900Y0087035D03*
X0077587Y0094825D03*
X0077587Y0101912D03*
X0101800Y0114069D03*
X0112130Y0114169D03*
X0112130Y0121255D03*
X0101800Y0121155D03*
X0125310Y0089515D03*
X0125310Y0082429D03*
X0129240Y0074285D03*
X0140180Y0075669D03*
X0140180Y0082755D03*
X0129240Y0067199D03*
X0118870Y0062395D03*
X0118870Y0055309D03*
X0050600Y0071099D03*
X0050600Y0078185D03*
X0161370Y0115949D03*
X0161370Y0123035D03*
D13*
X0146890Y0128511D03*
X0146890Y0115913D03*
D14*
X0193340Y0101668D03*
X0193340Y0094975D03*
D15*
X0208930Y0100912D03*
D16*
X0171170Y0079022D03*
X0169570Y0079022D03*
X0169570Y0077422D03*
X0171170Y0077422D03*
D17*
X0082633Y0118762D03*
X0071017Y0118762D03*
D18*
X0090100Y0096762D03*
X0090100Y0094762D03*
X0090100Y0092762D03*
X0090100Y0090762D03*
X0103500Y0090762D03*
X0103500Y0092762D03*
X0103500Y0094762D03*
X0103500Y0096762D03*
D19*
X0099800Y0100462D03*
X0097800Y0100462D03*
X0095800Y0100462D03*
X0093800Y0100462D03*
X0093800Y0087062D03*
X0095800Y0087062D03*
X0097800Y0087062D03*
X0099800Y0087062D03*
D20*
X0096800Y0093762D03*
D21*
X0174269Y0091332D03*
X0182537Y0095072D03*
X0182537Y0087592D03*
D22*
X0173210Y0105382D03*
X0147880Y0105432D03*
X0094920Y0132892D03*
X0196310Y0050632D03*
X0112660Y0048692D03*
M02*
