G75*
%MOIN*%
%OFA0B0*%
%FSLAX25Y25*%
%IPPOS*%
%LPD*%
%AMOC8*
5,1,8,0,0,1.08239X$1,22.5*
%
%ADD10C,0.00800*%
%ADD11C,0.00600*%
%ADD12C,0.02200*%
%ADD13C,0.00300*%
D10*
X0137120Y0092222D02*
X0139620Y0089722D01*
X0144620Y0089722D01*
X0147120Y0092222D01*
X0147120Y0097222D01*
X0144620Y0099722D01*
X0139620Y0099722D01*
X0137120Y0097222D01*
X0137120Y0092222D01*
X0130960Y0108902D02*
X0125960Y0108902D01*
X0123460Y0111402D01*
X0123460Y0116402D01*
X0125960Y0118902D01*
X0123460Y0121402D01*
X0123460Y0126402D01*
X0125960Y0128902D01*
X0130960Y0128902D01*
X0133460Y0126402D01*
X0133460Y0121402D01*
X0130960Y0118902D01*
X0133460Y0116402D01*
X0133460Y0111402D01*
X0130960Y0108902D01*
X0141772Y0115913D02*
X0141772Y0128511D01*
X0152008Y0128511D02*
X0152008Y0115913D01*
X0171500Y0113932D02*
X0174000Y0111432D01*
X0179000Y0111432D01*
X0181500Y0113932D01*
X0181500Y0118932D01*
X0179000Y0121432D01*
X0181500Y0123932D01*
X0181500Y0128932D01*
X0179000Y0131432D01*
X0174000Y0131432D01*
X0171500Y0128932D01*
X0171500Y0123932D01*
X0174000Y0121432D01*
X0171500Y0118932D01*
X0171500Y0113932D01*
X0191190Y0113672D02*
X0193690Y0111172D01*
X0198690Y0111172D01*
X0201190Y0113672D01*
X0201190Y0118672D01*
X0198690Y0121172D01*
X0201190Y0123672D01*
X0201190Y0128672D01*
X0198690Y0131172D01*
X0193690Y0131172D01*
X0191190Y0128672D01*
X0191190Y0123672D01*
X0193690Y0121172D01*
X0191190Y0118672D01*
X0191190Y0113672D01*
X0203430Y0103412D02*
X0205930Y0105912D01*
X0210930Y0105912D01*
X0213430Y0103412D01*
X0213430Y0098412D01*
X0210930Y0095912D01*
X0213430Y0093412D01*
X0213430Y0088412D01*
X0210930Y0085912D01*
X0213430Y0083412D01*
X0213430Y0078412D01*
X0210930Y0075912D01*
X0213430Y0073412D01*
X0213430Y0068412D01*
X0210930Y0065912D01*
X0205930Y0065912D01*
X0203430Y0068412D01*
X0203430Y0073412D01*
X0205930Y0075912D01*
X0203430Y0078412D01*
X0203430Y0083412D01*
X0205930Y0085912D01*
X0203430Y0088412D01*
X0203430Y0093412D01*
X0205930Y0095912D01*
X0203430Y0098412D01*
X0203430Y0103412D01*
X0178994Y0096844D02*
X0175844Y0096844D01*
X0175844Y0094482D01*
X0175844Y0088182D02*
X0175844Y0085820D01*
X0178994Y0085820D01*
X0055720Y0112632D02*
X0053220Y0110132D01*
X0048220Y0110132D01*
X0045720Y0112632D01*
X0045720Y0117632D01*
X0048220Y0120132D01*
X0045720Y0122632D01*
X0045720Y0127632D01*
X0048220Y0130132D01*
X0053220Y0130132D01*
X0055720Y0127632D01*
X0055720Y0122632D01*
X0053220Y0120132D01*
X0055720Y0117632D01*
X0055720Y0112632D01*
D11*
X0095618Y0059843D02*
X0095618Y0057481D01*
X0100342Y0057481D02*
X0100342Y0059843D01*
X0116508Y0060033D02*
X0116508Y0057671D01*
X0121232Y0057671D02*
X0121232Y0060033D01*
X0126878Y0069561D02*
X0126878Y0071923D01*
X0131602Y0071923D02*
X0131602Y0069561D01*
X0137818Y0078031D02*
X0137818Y0080393D01*
X0142542Y0080393D02*
X0142542Y0078031D01*
X0127672Y0084791D02*
X0127672Y0087153D01*
X0122948Y0087153D02*
X0122948Y0084791D01*
X0110300Y0092762D02*
X0106300Y0092762D01*
X0103900Y0088862D02*
X0103900Y0086662D01*
X0101700Y0086662D01*
X0091900Y0086662D02*
X0089700Y0086662D01*
X0089700Y0088862D01*
X0079950Y0097187D02*
X0079950Y0099549D01*
X0075225Y0099549D02*
X0075225Y0097187D01*
X0089700Y0098662D02*
X0089700Y0100862D01*
X0091900Y0100862D01*
X0101700Y0100862D02*
X0103900Y0100862D01*
X0103900Y0098662D01*
X0104162Y0116431D02*
X0104162Y0118793D01*
X0099438Y0118793D02*
X0099438Y0116431D01*
X0109768Y0116531D02*
X0109768Y0118893D01*
X0114492Y0118893D02*
X0114492Y0116531D01*
X0159008Y0118311D02*
X0159008Y0120673D01*
X0163732Y0120673D02*
X0163732Y0118311D01*
X0110611Y0074074D02*
X0108249Y0074074D01*
X0108249Y0069350D02*
X0110611Y0069350D01*
X0095511Y0069550D02*
X0093149Y0069550D01*
X0093149Y0074274D02*
X0095511Y0074274D01*
X0085412Y0076581D02*
X0085412Y0078943D01*
X0080688Y0078943D02*
X0080688Y0076581D01*
X0070262Y0082311D02*
X0070262Y0084673D01*
X0065538Y0084673D02*
X0065538Y0082311D01*
X0052962Y0075823D02*
X0052962Y0073461D01*
X0048238Y0073461D02*
X0048238Y0075823D01*
X0063099Y0073514D02*
X0065461Y0073514D01*
X0065461Y0068790D02*
X0063099Y0068790D01*
X0059618Y0096892D02*
X0057256Y0096892D01*
X0057256Y0101617D02*
X0059618Y0101617D01*
D12*
X0193220Y0098322D02*
X0193460Y0098322D01*
D13*
X0173524Y0085104D02*
X0171956Y0086672D01*
X0168820Y0086672D01*
X0169572Y0086672D02*
X0169572Y0084320D01*
X0168788Y0083536D01*
X0168004Y0083536D01*
X0167220Y0084320D01*
X0167220Y0086672D01*
X0171924Y0086672D01*
X0171924Y0084320D01*
X0171140Y0083536D01*
X0170356Y0083536D01*
X0169572Y0084320D01*
X0168820Y0083536D02*
X0171956Y0083536D01*
X0173524Y0085104D01*
X0171172Y0086672D02*
X0171172Y0083536D01*
X0174620Y0079808D02*
X0176188Y0081376D01*
X0176188Y0076672D01*
X0174620Y0076672D02*
X0177756Y0076672D01*
X0177756Y0078208D02*
X0174620Y0075072D01*
X0177756Y0075072D01*
X0177756Y0078208D02*
X0177756Y0078992D01*
X0176972Y0079776D01*
X0175404Y0079776D01*
X0174620Y0078992D01*
X0086986Y0097596D02*
X0083850Y0100732D01*
X0085418Y0100732D02*
X0085418Y0097596D01*
X0083850Y0097596D02*
X0086986Y0100732D01*
X0086986Y0099164D02*
X0083850Y0099164D01*
M02*
