G75*
%MOIN*%
%OFA0B0*%
%FSLAX25Y25*%
%IPPOS*%
%LPD*%
%AMOC8*
5,1,8,0,0,1.08239X$1,22.5*
%
%ADD10C,0.07400*%
%ADD11R,0.07400X0.07400*%
%ADD12C,0.01600*%
%ADD13C,0.06496*%
D10*
X0142120Y0094722D03*
X0128460Y0113902D03*
X0128460Y0123902D03*
X0176500Y0126432D03*
X0176500Y0116432D03*
X0196190Y0116172D03*
X0196190Y0126172D03*
X0207930Y0090912D03*
X0208930Y0080912D03*
X0207930Y0070912D03*
X0050720Y0115132D03*
X0050720Y0125132D03*
D11*
X0208930Y0100912D03*
D12*
X0031390Y0138925D02*
X0031390Y0033564D01*
X0225981Y0033650D01*
X0225981Y0139010D01*
X0031390Y0138925D01*
X0031390Y0137591D02*
X0093595Y0137591D01*
X0093956Y0137740D02*
X0092174Y0137002D01*
X0090810Y0135638D01*
X0090072Y0133856D01*
X0090072Y0131928D01*
X0090810Y0130146D01*
X0092174Y0128782D01*
X0093956Y0128044D01*
X0095884Y0128044D01*
X0097666Y0128782D01*
X0099030Y0130146D01*
X0099768Y0131928D01*
X0099768Y0133856D01*
X0099030Y0135638D01*
X0097666Y0137002D01*
X0095884Y0137740D01*
X0093956Y0137740D01*
X0096245Y0137591D02*
X0225981Y0137591D01*
X0225981Y0135992D02*
X0098676Y0135992D01*
X0099545Y0134394D02*
X0225981Y0134394D01*
X0225981Y0132795D02*
X0099768Y0132795D01*
X0099465Y0131197D02*
X0173737Y0131197D01*
X0173617Y0131136D02*
X0172917Y0130627D01*
X0172305Y0130015D01*
X0171796Y0129315D01*
X0171403Y0128543D01*
X0171135Y0127720D01*
X0171000Y0126865D01*
X0171000Y0126632D01*
X0176300Y0126632D01*
X0176300Y0131932D01*
X0176067Y0131932D01*
X0175212Y0131797D01*
X0174389Y0131529D01*
X0173617Y0131136D01*
X0172002Y0129598D02*
X0098482Y0129598D01*
X0091358Y0129598D02*
X0053930Y0129598D01*
X0053603Y0129836D02*
X0054303Y0129327D01*
X0054915Y0128715D01*
X0055424Y0128015D01*
X0055817Y0127243D01*
X0056085Y0126420D01*
X0056220Y0125565D01*
X0056220Y0125332D01*
X0050920Y0125332D01*
X0050520Y0125332D01*
X0050520Y0130632D01*
X0050287Y0130632D01*
X0049432Y0130497D01*
X0048609Y0130229D01*
X0047837Y0129836D01*
X0047137Y0129327D01*
X0046525Y0128715D01*
X0046016Y0128015D01*
X0045623Y0127243D01*
X0045355Y0126420D01*
X0045220Y0125565D01*
X0045220Y0125332D01*
X0050520Y0125332D01*
X0050520Y0124932D01*
X0045220Y0124932D01*
X0045220Y0124699D01*
X0045355Y0123844D01*
X0045623Y0123021D01*
X0046016Y0122249D01*
X0046525Y0121549D01*
X0047137Y0120937D01*
X0047837Y0120428D01*
X0048609Y0120035D01*
X0048664Y0120017D01*
X0047718Y0119625D01*
X0046227Y0118134D01*
X0045420Y0116186D01*
X0045420Y0114078D01*
X0046227Y0112130D01*
X0047718Y0110639D01*
X0049666Y0109832D01*
X0051774Y0109832D01*
X0053722Y0110639D01*
X0055213Y0112130D01*
X0056020Y0114078D01*
X0056020Y0116186D01*
X0055213Y0118134D01*
X0053722Y0119625D01*
X0052776Y0120017D01*
X0052831Y0120035D01*
X0053603Y0120428D01*
X0054303Y0120937D01*
X0054915Y0121549D01*
X0055424Y0122249D01*
X0055817Y0123021D01*
X0056085Y0123844D01*
X0056220Y0124699D01*
X0056220Y0124932D01*
X0050920Y0124932D01*
X0050920Y0125332D01*
X0050920Y0130632D01*
X0051153Y0130632D01*
X0052008Y0130497D01*
X0052831Y0130229D01*
X0053603Y0129836D01*
X0055432Y0128000D02*
X0125062Y0128000D01*
X0125458Y0128395D02*
X0123967Y0126904D01*
X0123160Y0124956D01*
X0123160Y0122848D01*
X0123967Y0120900D01*
X0125458Y0119409D01*
X0126682Y0118902D01*
X0125458Y0118395D01*
X0123967Y0116904D01*
X0123160Y0114956D01*
X0123160Y0112848D01*
X0123967Y0110900D01*
X0125458Y0109409D01*
X0127406Y0108602D01*
X0129514Y0108602D01*
X0131462Y0109409D01*
X0132953Y0110900D01*
X0133760Y0112848D01*
X0133760Y0114956D01*
X0132953Y0116904D01*
X0131462Y0118395D01*
X0130238Y0118902D01*
X0131462Y0119409D01*
X0132953Y0120900D01*
X0133760Y0122848D01*
X0133760Y0124956D01*
X0132953Y0126904D01*
X0131462Y0128395D01*
X0129514Y0129202D01*
X0127406Y0129202D01*
X0125458Y0128395D01*
X0123759Y0126401D02*
X0056088Y0126401D01*
X0056220Y0124803D02*
X0123160Y0124803D01*
X0123160Y0123204D02*
X0055877Y0123204D01*
X0054956Y0121606D02*
X0123674Y0121606D01*
X0124859Y0120007D02*
X0052800Y0120007D01*
X0054939Y0118409D02*
X0125491Y0118409D01*
X0123928Y0116810D02*
X0055762Y0116810D01*
X0056020Y0115212D02*
X0123266Y0115212D01*
X0123160Y0113613D02*
X0055828Y0113613D01*
X0055098Y0112015D02*
X0123505Y0112015D01*
X0124451Y0110416D02*
X0053184Y0110416D01*
X0048256Y0110416D02*
X0031390Y0110416D01*
X0031390Y0108818D02*
X0126885Y0108818D01*
X0130035Y0108818D02*
X0225981Y0108818D01*
X0225981Y0110416D02*
X0132469Y0110416D01*
X0133415Y0112015D02*
X0173422Y0112015D01*
X0173498Y0111939D02*
X0175446Y0111132D01*
X0177554Y0111132D01*
X0179502Y0111939D01*
X0180993Y0113430D01*
X0181800Y0115378D01*
X0181800Y0117486D01*
X0180993Y0119434D01*
X0179502Y0120925D01*
X0178556Y0121317D01*
X0178611Y0121335D01*
X0179383Y0121728D01*
X0180083Y0122237D01*
X0180695Y0122849D01*
X0181204Y0123549D01*
X0181597Y0124321D01*
X0181865Y0125144D01*
X0182000Y0125999D01*
X0182000Y0126232D01*
X0176700Y0126232D01*
X0176700Y0126632D01*
X0176300Y0126632D01*
X0176300Y0126232D01*
X0171000Y0126232D01*
X0171000Y0125999D01*
X0171135Y0125144D01*
X0171403Y0124321D01*
X0171796Y0123549D01*
X0172305Y0122849D01*
X0172917Y0122237D01*
X0173617Y0121728D01*
X0174389Y0121335D01*
X0174444Y0121317D01*
X0173498Y0120925D01*
X0172007Y0119434D01*
X0171200Y0117486D01*
X0171200Y0115378D01*
X0172007Y0113430D01*
X0173498Y0111939D01*
X0171931Y0113613D02*
X0133760Y0113613D01*
X0133654Y0115212D02*
X0171269Y0115212D01*
X0171200Y0116810D02*
X0132992Y0116810D01*
X0131429Y0118409D02*
X0171582Y0118409D01*
X0172580Y0120007D02*
X0132061Y0120007D01*
X0133245Y0121606D02*
X0173857Y0121606D01*
X0172047Y0123204D02*
X0133760Y0123204D01*
X0133760Y0124803D02*
X0171246Y0124803D01*
X0176300Y0126401D02*
X0133161Y0126401D01*
X0131858Y0128000D02*
X0171226Y0128000D01*
X0176300Y0128000D02*
X0176700Y0128000D01*
X0176700Y0126632D02*
X0176700Y0131932D01*
X0176933Y0131932D01*
X0177788Y0131797D01*
X0178611Y0131529D01*
X0179383Y0131136D01*
X0180083Y0130627D01*
X0180695Y0130015D01*
X0181204Y0129315D01*
X0181597Y0128543D01*
X0181865Y0127720D01*
X0182000Y0126865D01*
X0182000Y0126632D01*
X0176700Y0126632D01*
X0176700Y0126401D02*
X0190690Y0126401D01*
X0190690Y0126372D02*
X0195990Y0126372D01*
X0195990Y0131672D01*
X0195757Y0131672D01*
X0194902Y0131537D01*
X0194079Y0131269D01*
X0193307Y0130876D01*
X0192607Y0130367D01*
X0191995Y0129755D01*
X0191486Y0129055D01*
X0191093Y0128283D01*
X0190825Y0127460D01*
X0190690Y0126605D01*
X0190690Y0126372D01*
X0190690Y0125972D02*
X0190690Y0125739D01*
X0190825Y0124884D01*
X0191093Y0124061D01*
X0191486Y0123289D01*
X0191995Y0122589D01*
X0192607Y0121977D01*
X0193307Y0121468D01*
X0194079Y0121075D01*
X0194134Y0121057D01*
X0193188Y0120665D01*
X0191697Y0119174D01*
X0190890Y0117226D01*
X0190890Y0115118D01*
X0191697Y0113170D01*
X0193188Y0111679D01*
X0195136Y0110872D01*
X0197244Y0110872D01*
X0199192Y0111679D01*
X0200683Y0113170D01*
X0201490Y0115118D01*
X0201490Y0117226D01*
X0200683Y0119174D01*
X0199192Y0120665D01*
X0198246Y0121057D01*
X0198301Y0121075D01*
X0199073Y0121468D01*
X0199773Y0121977D01*
X0200385Y0122589D01*
X0200894Y0123289D01*
X0201287Y0124061D01*
X0201555Y0124884D01*
X0201690Y0125739D01*
X0201690Y0125972D01*
X0196390Y0125972D01*
X0196390Y0126372D01*
X0195990Y0126372D01*
X0195990Y0125972D01*
X0190690Y0125972D01*
X0190852Y0124803D02*
X0181754Y0124803D01*
X0180953Y0123204D02*
X0191548Y0123204D01*
X0193118Y0121606D02*
X0179143Y0121606D01*
X0180420Y0120007D02*
X0192530Y0120007D01*
X0191380Y0118409D02*
X0181418Y0118409D01*
X0181800Y0116810D02*
X0190890Y0116810D01*
X0190890Y0115212D02*
X0181731Y0115212D01*
X0181069Y0113613D02*
X0191513Y0113613D01*
X0192852Y0112015D02*
X0179578Y0112015D01*
X0199528Y0112015D02*
X0225981Y0112015D01*
X0225981Y0113613D02*
X0200867Y0113613D01*
X0201490Y0115212D02*
X0225981Y0115212D01*
X0225981Y0116810D02*
X0201490Y0116810D01*
X0201000Y0118409D02*
X0225981Y0118409D01*
X0225981Y0120007D02*
X0199850Y0120007D01*
X0199262Y0121606D02*
X0225981Y0121606D01*
X0225981Y0123204D02*
X0200832Y0123204D01*
X0201528Y0124803D02*
X0225981Y0124803D01*
X0225981Y0126401D02*
X0201690Y0126401D01*
X0201690Y0126372D02*
X0201690Y0126605D01*
X0201555Y0127460D01*
X0201287Y0128283D01*
X0200894Y0129055D01*
X0200385Y0129755D01*
X0199773Y0130367D01*
X0199073Y0130876D01*
X0198301Y0131269D01*
X0197478Y0131537D01*
X0196623Y0131672D01*
X0196390Y0131672D01*
X0196390Y0126372D01*
X0201690Y0126372D01*
X0201379Y0128000D02*
X0225981Y0128000D01*
X0225981Y0129598D02*
X0200499Y0129598D01*
X0198443Y0131197D02*
X0225981Y0131197D01*
X0196390Y0131197D02*
X0195990Y0131197D01*
X0195990Y0129598D02*
X0196390Y0129598D01*
X0196390Y0128000D02*
X0195990Y0128000D01*
X0191881Y0129598D02*
X0180998Y0129598D01*
X0181774Y0128000D02*
X0191001Y0128000D01*
X0193937Y0131197D02*
X0179263Y0131197D01*
X0176700Y0131197D02*
X0176300Y0131197D01*
X0176300Y0129598D02*
X0176700Y0129598D01*
X0195990Y0126401D02*
X0196390Y0126401D01*
X0225981Y0107219D02*
X0031390Y0107219D01*
X0031390Y0105621D02*
X0203976Y0105621D01*
X0203630Y0105275D02*
X0203630Y0096549D01*
X0204567Y0095612D01*
X0205042Y0095612D01*
X0204347Y0095107D01*
X0203735Y0094495D01*
X0203226Y0093795D01*
X0202833Y0093023D01*
X0202565Y0092200D01*
X0202430Y0091345D01*
X0202430Y0091112D01*
X0207730Y0091112D01*
X0207730Y0090712D01*
X0202430Y0090712D01*
X0202430Y0090479D01*
X0202565Y0089624D01*
X0202833Y0088801D01*
X0203226Y0088029D01*
X0203735Y0087329D01*
X0204347Y0086717D01*
X0205047Y0086208D01*
X0205819Y0085815D01*
X0206434Y0085615D01*
X0205928Y0085405D01*
X0204437Y0083914D01*
X0203630Y0081966D01*
X0203630Y0079858D01*
X0204437Y0077910D01*
X0205928Y0076419D01*
X0206434Y0076209D01*
X0205819Y0076009D01*
X0205047Y0075616D01*
X0204347Y0075107D01*
X0203735Y0074495D01*
X0203226Y0073795D01*
X0202833Y0073023D01*
X0202565Y0072200D01*
X0202430Y0071345D01*
X0202430Y0071112D01*
X0207730Y0071112D01*
X0207730Y0070712D01*
X0202430Y0070712D01*
X0202430Y0070479D01*
X0202565Y0069624D01*
X0202833Y0068801D01*
X0203226Y0068029D01*
X0203735Y0067329D01*
X0204347Y0066717D01*
X0205047Y0066208D01*
X0205819Y0065815D01*
X0206642Y0065547D01*
X0207497Y0065412D01*
X0207730Y0065412D01*
X0207730Y0070712D01*
X0208130Y0070712D01*
X0208130Y0071112D01*
X0213430Y0071112D01*
X0213430Y0071345D01*
X0213295Y0072200D01*
X0213027Y0073023D01*
X0212634Y0073795D01*
X0212125Y0074495D01*
X0211513Y0075107D01*
X0210813Y0075616D01*
X0210445Y0075803D01*
X0211932Y0076419D01*
X0213423Y0077910D01*
X0214230Y0079858D01*
X0214230Y0081966D01*
X0213423Y0083914D01*
X0211932Y0085405D01*
X0210445Y0086021D01*
X0210813Y0086208D01*
X0211513Y0086717D01*
X0212125Y0087329D01*
X0212634Y0088029D01*
X0213027Y0088801D01*
X0213295Y0089624D01*
X0213430Y0090479D01*
X0213430Y0090712D01*
X0208130Y0090712D01*
X0208130Y0091112D01*
X0213430Y0091112D01*
X0213430Y0091345D01*
X0213295Y0092200D01*
X0213027Y0093023D01*
X0212634Y0093795D01*
X0212125Y0094495D01*
X0211513Y0095107D01*
X0210818Y0095612D01*
X0213293Y0095612D01*
X0214230Y0096549D01*
X0214230Y0105275D01*
X0213293Y0106212D01*
X0204567Y0106212D01*
X0203630Y0105275D01*
X0203630Y0104022D02*
X0031390Y0104022D01*
X0031390Y0102423D02*
X0203630Y0102423D01*
X0203630Y0100825D02*
X0031390Y0100825D01*
X0031390Y0099226D02*
X0139145Y0099226D01*
X0139118Y0099215D02*
X0137627Y0097724D01*
X0136820Y0095776D01*
X0136820Y0093668D01*
X0137627Y0091720D01*
X0139118Y0090229D01*
X0141066Y0089422D01*
X0143174Y0089422D01*
X0145122Y0090229D01*
X0146613Y0091720D01*
X0147420Y0093668D01*
X0147420Y0095776D01*
X0146613Y0097724D01*
X0145122Y0099215D01*
X0143174Y0100022D01*
X0141066Y0100022D01*
X0139118Y0099215D01*
X0137587Y0097628D02*
X0031390Y0097628D01*
X0031390Y0096029D02*
X0136925Y0096029D01*
X0136820Y0094431D02*
X0031390Y0094431D01*
X0031390Y0092832D02*
X0137166Y0092832D01*
X0138113Y0091234D02*
X0031390Y0091234D01*
X0031390Y0089635D02*
X0140550Y0089635D01*
X0143690Y0089635D02*
X0202564Y0089635D01*
X0202430Y0091234D02*
X0146127Y0091234D01*
X0147074Y0092832D02*
X0202771Y0092832D01*
X0203688Y0094431D02*
X0147420Y0094431D01*
X0147315Y0096029D02*
X0204150Y0096029D01*
X0203630Y0097628D02*
X0146653Y0097628D01*
X0145095Y0099226D02*
X0203630Y0099226D01*
X0212172Y0094431D02*
X0225981Y0094431D01*
X0225981Y0096029D02*
X0213710Y0096029D01*
X0214230Y0097628D02*
X0225981Y0097628D01*
X0225981Y0099226D02*
X0214230Y0099226D01*
X0214230Y0100825D02*
X0225981Y0100825D01*
X0225981Y0102423D02*
X0214230Y0102423D01*
X0214230Y0104022D02*
X0225981Y0104022D01*
X0225981Y0105621D02*
X0213884Y0105621D01*
X0213089Y0092832D02*
X0225981Y0092832D01*
X0225981Y0091234D02*
X0213430Y0091234D01*
X0213296Y0089635D02*
X0225981Y0089635D01*
X0225981Y0088037D02*
X0212638Y0088037D01*
X0211130Y0086438D02*
X0225981Y0086438D01*
X0225981Y0084840D02*
X0212497Y0084840D01*
X0213702Y0083241D02*
X0225981Y0083241D01*
X0225981Y0081643D02*
X0214230Y0081643D01*
X0214230Y0080044D02*
X0225981Y0080044D01*
X0225981Y0078446D02*
X0213645Y0078446D01*
X0212361Y0076847D02*
X0225981Y0076847D01*
X0225981Y0075249D02*
X0211318Y0075249D01*
X0212708Y0073650D02*
X0225981Y0073650D01*
X0225981Y0072052D02*
X0213318Y0072052D01*
X0213430Y0070712D02*
X0208130Y0070712D01*
X0208130Y0065412D01*
X0208363Y0065412D01*
X0209218Y0065547D01*
X0210041Y0065815D01*
X0210813Y0066208D01*
X0211513Y0066717D01*
X0212125Y0067329D01*
X0212634Y0068029D01*
X0213027Y0068801D01*
X0213295Y0069624D01*
X0213430Y0070479D01*
X0213430Y0070712D01*
X0213426Y0070453D02*
X0225981Y0070453D01*
X0225981Y0068855D02*
X0213045Y0068855D01*
X0212052Y0067256D02*
X0225981Y0067256D01*
X0225981Y0065658D02*
X0209558Y0065658D01*
X0208130Y0065658D02*
X0207730Y0065658D01*
X0206302Y0065658D02*
X0031390Y0065658D01*
X0031390Y0067256D02*
X0203808Y0067256D01*
X0202815Y0068855D02*
X0031390Y0068855D01*
X0031390Y0070453D02*
X0202434Y0070453D01*
X0202542Y0072052D02*
X0031390Y0072052D01*
X0031390Y0073650D02*
X0203152Y0073650D01*
X0204542Y0075249D02*
X0031390Y0075249D01*
X0031390Y0076847D02*
X0205499Y0076847D01*
X0204215Y0078446D02*
X0031390Y0078446D01*
X0031390Y0080044D02*
X0203630Y0080044D01*
X0203630Y0081643D02*
X0031390Y0081643D01*
X0031390Y0083241D02*
X0204158Y0083241D01*
X0205363Y0084840D02*
X0031390Y0084840D01*
X0031390Y0086438D02*
X0204730Y0086438D01*
X0203222Y0088037D02*
X0031390Y0088037D01*
X0031390Y0112015D02*
X0046342Y0112015D01*
X0045612Y0113613D02*
X0031390Y0113613D01*
X0031390Y0115212D02*
X0045420Y0115212D01*
X0045678Y0116810D02*
X0031390Y0116810D01*
X0031390Y0118409D02*
X0046501Y0118409D01*
X0048640Y0120007D02*
X0031390Y0120007D01*
X0031390Y0121606D02*
X0046484Y0121606D01*
X0045563Y0123204D02*
X0031390Y0123204D01*
X0031390Y0124803D02*
X0045220Y0124803D01*
X0045352Y0126401D02*
X0031390Y0126401D01*
X0031390Y0128000D02*
X0046008Y0128000D01*
X0047510Y0129598D02*
X0031390Y0129598D01*
X0031390Y0131197D02*
X0090375Y0131197D01*
X0090072Y0132795D02*
X0031390Y0132795D01*
X0031390Y0134394D02*
X0090295Y0134394D01*
X0091164Y0135992D02*
X0031390Y0135992D01*
X0050520Y0129598D02*
X0050920Y0129598D01*
X0050920Y0128000D02*
X0050520Y0128000D01*
X0050520Y0126401D02*
X0050920Y0126401D01*
X0031390Y0064059D02*
X0225981Y0064059D01*
X0225981Y0062461D02*
X0031390Y0062461D01*
X0031390Y0060862D02*
X0225981Y0060862D01*
X0225981Y0059264D02*
X0031390Y0059264D01*
X0031390Y0057665D02*
X0225981Y0057665D01*
X0225981Y0056067D02*
X0031390Y0056067D01*
X0031390Y0054468D02*
X0193290Y0054468D01*
X0193564Y0054742D02*
X0192200Y0053378D01*
X0191462Y0051596D01*
X0191462Y0049668D01*
X0192200Y0047886D01*
X0193564Y0046522D01*
X0195346Y0045784D01*
X0197274Y0045784D01*
X0199056Y0046522D01*
X0200420Y0047886D01*
X0201158Y0049668D01*
X0201158Y0051596D01*
X0200420Y0053378D01*
X0199056Y0054742D01*
X0197274Y0055480D01*
X0195346Y0055480D01*
X0193564Y0054742D01*
X0191989Y0052870D02*
X0031390Y0052870D01*
X0031390Y0051271D02*
X0191462Y0051271D01*
X0191462Y0049673D02*
X0031390Y0049673D01*
X0031390Y0048074D02*
X0192122Y0048074D01*
X0193676Y0046476D02*
X0031390Y0046476D01*
X0031390Y0044877D02*
X0225981Y0044877D01*
X0225981Y0043279D02*
X0031390Y0043279D01*
X0031390Y0041680D02*
X0225981Y0041680D01*
X0225981Y0040082D02*
X0031390Y0040082D01*
X0031390Y0038483D02*
X0225981Y0038483D01*
X0225981Y0036885D02*
X0031390Y0036885D01*
X0031390Y0035286D02*
X0225981Y0035286D01*
X0225981Y0033688D02*
X0031390Y0033688D01*
X0198944Y0046476D02*
X0225981Y0046476D01*
X0225981Y0048074D02*
X0200498Y0048074D01*
X0201158Y0049673D02*
X0225981Y0049673D01*
X0225981Y0051271D02*
X0201158Y0051271D01*
X0200631Y0052870D02*
X0225981Y0052870D01*
X0225981Y0054468D02*
X0199330Y0054468D01*
X0207730Y0067256D02*
X0208130Y0067256D01*
X0208130Y0068855D02*
X0207730Y0068855D01*
X0207730Y0070453D02*
X0208130Y0070453D01*
D13*
X0196310Y0050632D03*
X0112660Y0048692D03*
X0173210Y0105382D03*
X0147880Y0105432D03*
X0094920Y0132892D03*
M02*
