G75*
%MOIN*%
%OFA0B0*%
%FSLAX25Y25*%
%IPPOS*%
%LPD*%
%AMOC8*
5,1,8,0,0,1.08239X$1,22.5*
%
%ADD10R,0.03150X0.04724*%
%ADD11R,0.04724X0.03150*%
%ADD12R,0.07874X0.04724*%
%ADD13R,0.03937X0.04331*%
%ADD14C,0.00800*%
%ADD15R,0.05700X0.17500*%
%ADD16R,0.03200X0.01200*%
%ADD17R,0.01200X0.03200*%
%ADD18R,0.08000X0.08000*%
%ADD19R,0.03543X0.03150*%
D10*
X0060737Y0071152D03*
X0067823Y0071152D03*
X0090787Y0071912D03*
X0097873Y0071912D03*
X0105887Y0071712D03*
X0112973Y0071712D03*
X0061981Y0099255D03*
X0054894Y0099255D03*
D11*
X0097980Y0055119D03*
X0097980Y0062205D03*
X0083050Y0074219D03*
X0083050Y0081305D03*
X0067900Y0079949D03*
X0067900Y0087035D03*
X0077587Y0094825D03*
X0077587Y0101912D03*
X0101800Y0114069D03*
X0112130Y0114169D03*
X0112130Y0121255D03*
X0101800Y0121155D03*
X0125310Y0089515D03*
X0125310Y0082429D03*
X0129240Y0074285D03*
X0140180Y0075669D03*
X0140180Y0082755D03*
X0129240Y0067199D03*
X0118870Y0062395D03*
X0118870Y0055309D03*
X0050600Y0071099D03*
X0050600Y0078185D03*
X0161370Y0115949D03*
X0161370Y0123035D03*
D12*
X0146890Y0128511D03*
X0146890Y0115913D03*
D13*
X0193340Y0101668D03*
X0193340Y0094975D03*
D14*
X0171170Y0079022D03*
X0169570Y0079022D03*
X0169570Y0077422D03*
X0171170Y0077422D03*
D15*
X0082633Y0118762D03*
X0071017Y0118762D03*
D16*
X0090100Y0096762D03*
X0090100Y0094762D03*
X0090100Y0092762D03*
X0090100Y0090762D03*
X0103500Y0090762D03*
X0103500Y0092762D03*
X0103500Y0094762D03*
X0103500Y0096762D03*
D17*
X0099800Y0100462D03*
X0097800Y0100462D03*
X0095800Y0100462D03*
X0093800Y0100462D03*
X0093800Y0087062D03*
X0095800Y0087062D03*
X0097800Y0087062D03*
X0099800Y0087062D03*
D18*
X0096800Y0093762D03*
D19*
X0174269Y0091332D03*
X0182537Y0095072D03*
X0182537Y0087592D03*
M02*
